<mxfile host="app.diagrams.net" modified="2020-11-30T00:34:04.269Z" agent="5.0 (Windows NT 10.0; Win64; x64) AppleWebKit/537.36 (KHTML, like Gecko) Chrome/86.0.4240.198 Safari/537.36" etag="nsD0-Pb7I2A2fMkonP1S" version="13.10.4" type="github" pages="2">
  <diagram id="L3SjQP8ctfAbHoNvl2yI" name="Nama Adik">
    <mxGraphModel dx="1552" dy="811" grid="1" gridSize="10" guides="1" tooltips="1" connect="1" arrows="1" fold="1" page="1" pageScale="1" pageWidth="1920" pageHeight="1200" math="0" shadow="0">
      <root>
        <mxCell id="0" />
        <mxCell id="1" parent="0" />
        <mxCell id="9fUG4r4j1ojehd4SsCQp-1" value="Algoritma Huffman Coding" style="text;html=1;align=center;verticalAlign=middle;resizable=0;points=[];autosize=1;fontSize=20;fontStyle=1" vertex="1" parent="1">
          <mxGeometry x="100" y="45" width="270" height="30" as="geometry" />
        </mxCell>
        <mxCell id="Dbl0NGnEPowPrqD8Mns5-1" value="Nama Adik : &lt;b&gt;Ariani&lt;/b&gt;" style="text;html=1;align=center;verticalAlign=middle;resizable=0;points=[];autosize=1;fontSize=20;" vertex="1" parent="1">
          <mxGeometry x="100" y="90" width="190" height="30" as="geometry" />
        </mxCell>
        <mxCell id="Dbl0NGnEPowPrqD8Mns5-2" value="A" style="rounded=0;whiteSpace=wrap;html=1;fontSize=16;" vertex="1" parent="1">
          <mxGeometry x="80" y="160" width="40" height="40" as="geometry" />
        </mxCell>
        <mxCell id="Dbl0NGnEPowPrqD8Mns5-4" value="I" style="rounded=0;whiteSpace=wrap;html=1;fontSize=16;" vertex="1" parent="1">
          <mxGeometry x="80" y="200" width="40" height="40" as="geometry" />
        </mxCell>
        <mxCell id="Dbl0NGnEPowPrqD8Mns5-5" value="N" style="rounded=0;whiteSpace=wrap;html=1;fontSize=16;" vertex="1" parent="1">
          <mxGeometry x="80" y="240" width="40" height="40" as="geometry" />
        </mxCell>
        <mxCell id="Dbl0NGnEPowPrqD8Mns5-6" value="R" style="rounded=0;whiteSpace=wrap;html=1;fontSize=16;" vertex="1" parent="1">
          <mxGeometry x="80" y="280" width="40" height="40" as="geometry" />
        </mxCell>
        <mxCell id="Dbl0NGnEPowPrqD8Mns5-27" value="" style="edgeStyle=none;rounded=0;orthogonalLoop=1;jettySize=auto;html=1;fontSize=16;entryX=0;entryY=0.5;entryDx=0;entryDy=0;" edge="1" parent="1" source="Dbl0NGnEPowPrqD8Mns5-7" target="Dbl0NGnEPowPrqD8Mns5-19">
          <mxGeometry relative="1" as="geometry">
            <mxPoint x="240" y="180" as="targetPoint" />
          </mxGeometry>
        </mxCell>
        <mxCell id="Dbl0NGnEPowPrqD8Mns5-7" value="2" style="rounded=0;whiteSpace=wrap;html=1;fontSize=16;fillColor=#ffe6cc;strokeColor=#d79b00;" vertex="1" parent="1">
          <mxGeometry x="120" y="160" width="40" height="40" as="geometry" />
        </mxCell>
        <mxCell id="Dbl0NGnEPowPrqD8Mns5-28" value="" style="edgeStyle=none;rounded=0;orthogonalLoop=1;jettySize=auto;html=1;fontSize=16;" edge="1" parent="1" source="Dbl0NGnEPowPrqD8Mns5-8" target="Dbl0NGnEPowPrqD8Mns5-15">
          <mxGeometry relative="1" as="geometry" />
        </mxCell>
        <mxCell id="Dbl0NGnEPowPrqD8Mns5-8" value="2" style="rounded=0;whiteSpace=wrap;html=1;fontSize=16;fillColor=#dae8fc;strokeColor=#6c8ebf;" vertex="1" parent="1">
          <mxGeometry x="120" y="200" width="40" height="40" as="geometry" />
        </mxCell>
        <mxCell id="Dbl0NGnEPowPrqD8Mns5-12" value="" style="edgeStyle=orthogonalEdgeStyle;rounded=0;orthogonalLoop=1;jettySize=auto;html=1;fontSize=16;" edge="1" parent="1" source="Dbl0NGnEPowPrqD8Mns5-9" target="Dbl0NGnEPowPrqD8Mns5-11">
          <mxGeometry relative="1" as="geometry" />
        </mxCell>
        <mxCell id="Dbl0NGnEPowPrqD8Mns5-9" value="1" style="rounded=0;whiteSpace=wrap;html=1;fontSize=16;fillColor=#ffcc99;strokeColor=#36393d;" vertex="1" parent="1">
          <mxGeometry x="120" y="240" width="40" height="40" as="geometry" />
        </mxCell>
        <mxCell id="Dbl0NGnEPowPrqD8Mns5-13" value="" style="edgeStyle=orthogonalEdgeStyle;rounded=0;orthogonalLoop=1;jettySize=auto;html=1;fontSize=16;" edge="1" parent="1" source="Dbl0NGnEPowPrqD8Mns5-10" target="Dbl0NGnEPowPrqD8Mns5-11">
          <mxGeometry relative="1" as="geometry" />
        </mxCell>
        <mxCell id="Dbl0NGnEPowPrqD8Mns5-10" value="1" style="rounded=0;whiteSpace=wrap;html=1;fontSize=16;fillColor=#e1d5e7;strokeColor=#9673a6;" vertex="1" parent="1">
          <mxGeometry x="120" y="280" width="40" height="40" as="geometry" />
        </mxCell>
        <mxCell id="Dbl0NGnEPowPrqD8Mns5-18" value="" style="edgeStyle=orthogonalEdgeStyle;rounded=0;orthogonalLoop=1;jettySize=auto;html=1;fontSize=16;" edge="1" parent="1" source="Dbl0NGnEPowPrqD8Mns5-11" target="Dbl0NGnEPowPrqD8Mns5-16">
          <mxGeometry relative="1" as="geometry" />
        </mxCell>
        <mxCell id="Dbl0NGnEPowPrqD8Mns5-11" value="2" style="rounded=0;whiteSpace=wrap;html=1;fontSize=16;fillColor=#ffcc99;strokeColor=#36393d;" vertex="1" parent="1">
          <mxGeometry x="240" y="260" width="40" height="40" as="geometry" />
        </mxCell>
        <mxCell id="Dbl0NGnEPowPrqD8Mns5-17" value="" style="edgeStyle=orthogonalEdgeStyle;rounded=0;orthogonalLoop=1;jettySize=auto;html=1;fontSize=16;" edge="1" parent="1" source="Dbl0NGnEPowPrqD8Mns5-15" target="Dbl0NGnEPowPrqD8Mns5-16">
          <mxGeometry relative="1" as="geometry" />
        </mxCell>
        <mxCell id="Dbl0NGnEPowPrqD8Mns5-15" value="2" style="rounded=0;whiteSpace=wrap;html=1;fontSize=16;fillColor=#dae8fc;strokeColor=#6c8ebf;" vertex="1" parent="1">
          <mxGeometry x="240" y="200" width="40" height="40" as="geometry" />
        </mxCell>
        <mxCell id="Dbl0NGnEPowPrqD8Mns5-23" value="" style="edgeStyle=none;rounded=0;orthogonalLoop=1;jettySize=auto;html=1;fontSize=16;entryX=0;entryY=0.5;entryDx=0;entryDy=0;exitX=1;exitY=0.5;exitDx=0;exitDy=0;" edge="1" parent="1" source="Dbl0NGnEPowPrqD8Mns5-16" target="Dbl0NGnEPowPrqD8Mns5-21">
          <mxGeometry relative="1" as="geometry" />
        </mxCell>
        <mxCell id="Dbl0NGnEPowPrqD8Mns5-16" value="4" style="rounded=0;whiteSpace=wrap;html=1;fontSize=16;fillColor=#dae8fc;strokeColor=#6c8ebf;" vertex="1" parent="1">
          <mxGeometry x="360" y="230" width="40" height="40" as="geometry" />
        </mxCell>
        <mxCell id="Dbl0NGnEPowPrqD8Mns5-22" value="" style="edgeStyle=none;rounded=0;orthogonalLoop=1;jettySize=auto;html=1;fontSize=16;entryX=0;entryY=0.75;entryDx=0;entryDy=0;exitX=1;exitY=0.5;exitDx=0;exitDy=0;" edge="1" parent="1" source="Dbl0NGnEPowPrqD8Mns5-19" target="Dbl0NGnEPowPrqD8Mns5-20">
          <mxGeometry relative="1" as="geometry" />
        </mxCell>
        <mxCell id="Dbl0NGnEPowPrqD8Mns5-19" value="2" style="rounded=0;whiteSpace=wrap;html=1;fontSize=16;fillColor=#ffe6cc;strokeColor=#d79b00;" vertex="1" parent="1">
          <mxGeometry x="360" y="160" width="40" height="40" as="geometry" />
        </mxCell>
        <mxCell id="Dbl0NGnEPowPrqD8Mns5-26" value="" style="edgeStyle=orthogonalEdgeStyle;rounded=0;orthogonalLoop=1;jettySize=auto;html=1;fontSize=16;" edge="1" parent="1" source="Dbl0NGnEPowPrqD8Mns5-20" target="Dbl0NGnEPowPrqD8Mns5-24">
          <mxGeometry relative="1" as="geometry" />
        </mxCell>
        <mxCell id="Dbl0NGnEPowPrqD8Mns5-20" value="2" style="rounded=0;whiteSpace=wrap;html=1;fontSize=16;fillColor=#ffe6cc;strokeColor=#d79b00;" vertex="1" parent="1">
          <mxGeometry x="440" y="230" width="40" height="40" as="geometry" />
        </mxCell>
        <mxCell id="Dbl0NGnEPowPrqD8Mns5-25" value="" style="edgeStyle=orthogonalEdgeStyle;rounded=0;orthogonalLoop=1;jettySize=auto;html=1;fontSize=16;" edge="1" parent="1" source="Dbl0NGnEPowPrqD8Mns5-21" target="Dbl0NGnEPowPrqD8Mns5-24">
          <mxGeometry relative="1" as="geometry" />
        </mxCell>
        <mxCell id="Dbl0NGnEPowPrqD8Mns5-21" value="4" style="rounded=0;whiteSpace=wrap;html=1;fontSize=16;fillColor=#dae8fc;strokeColor=#6c8ebf;" vertex="1" parent="1">
          <mxGeometry x="440" y="160" width="40" height="40" as="geometry" />
        </mxCell>
        <mxCell id="Dbl0NGnEPowPrqD8Mns5-24" value="6" style="rounded=0;whiteSpace=wrap;html=1;fontSize=16;fillColor=#fff2cc;strokeColor=#d6b656;" vertex="1" parent="1">
          <mxGeometry x="560" y="200" width="40" height="40" as="geometry" />
        </mxCell>
        <mxCell id="Dbl0NGnEPowPrqD8Mns5-30" value="A" style="rounded=0;whiteSpace=wrap;html=1;fontSize=16;" vertex="1" parent="1">
          <mxGeometry x="80" y="360" width="40" height="40" as="geometry" />
        </mxCell>
        <mxCell id="Dbl0NGnEPowPrqD8Mns5-31" value="I" style="rounded=0;whiteSpace=wrap;html=1;fontSize=16;" vertex="1" parent="1">
          <mxGeometry x="80" y="400" width="40" height="40" as="geometry" />
        </mxCell>
        <mxCell id="Dbl0NGnEPowPrqD8Mns5-32" value="N" style="rounded=0;whiteSpace=wrap;html=1;fontSize=16;" vertex="1" parent="1">
          <mxGeometry x="80" y="440" width="40" height="40" as="geometry" />
        </mxCell>
        <mxCell id="Dbl0NGnEPowPrqD8Mns5-33" value="R" style="rounded=0;whiteSpace=wrap;html=1;fontSize=16;" vertex="1" parent="1">
          <mxGeometry x="80" y="480" width="40" height="40" as="geometry" />
        </mxCell>
        <mxCell id="Dbl0NGnEPowPrqD8Mns5-34" value="1" style="rounded=0;whiteSpace=wrap;html=1;fontSize=16;fillColor=#ffe6cc;strokeColor=#d79b00;" vertex="1" parent="1">
          <mxGeometry x="120" y="360" width="40" height="40" as="geometry" />
        </mxCell>
        <mxCell id="Dbl0NGnEPowPrqD8Mns5-35" value="00" style="rounded=0;whiteSpace=wrap;html=1;fontSize=16;fillColor=#dae8fc;strokeColor=#6c8ebf;" vertex="1" parent="1">
          <mxGeometry x="120" y="400" width="40" height="40" as="geometry" />
        </mxCell>
        <mxCell id="Dbl0NGnEPowPrqD8Mns5-36" value="010" style="rounded=0;whiteSpace=wrap;html=1;fontSize=16;fillColor=#ffcc99;strokeColor=#36393d;" vertex="1" parent="1">
          <mxGeometry x="120" y="440" width="40" height="40" as="geometry" />
        </mxCell>
        <mxCell id="Dbl0NGnEPowPrqD8Mns5-37" value="011" style="rounded=0;whiteSpace=wrap;html=1;fontSize=16;fillColor=#e1d5e7;strokeColor=#9673a6;" vertex="1" parent="1">
          <mxGeometry x="120" y="480" width="40" height="40" as="geometry" />
        </mxCell>
        <mxCell id="Dbl0NGnEPowPrqD8Mns5-38" value="1" style="text;html=1;align=center;verticalAlign=middle;resizable=0;points=[];autosize=1;fontSize=16;" vertex="1" parent="1">
          <mxGeometry x="165" y="305" width="20" height="20" as="geometry" />
        </mxCell>
        <mxCell id="Dbl0NGnEPowPrqD8Mns5-41" value="1" style="text;html=1;align=center;verticalAlign=middle;resizable=0;points=[];autosize=1;fontSize=16;" vertex="1" parent="1">
          <mxGeometry x="285" y="295" width="20" height="20" as="geometry" />
        </mxCell>
        <mxCell id="Dbl0NGnEPowPrqD8Mns5-42" value="1" style="text;html=1;align=center;verticalAlign=middle;resizable=0;points=[];autosize=1;fontSize=16;" vertex="1" parent="1">
          <mxGeometry x="485" y="255" width="20" height="20" as="geometry" />
        </mxCell>
        <mxCell id="Dbl0NGnEPowPrqD8Mns5-43" value="0" style="text;html=1;align=center;verticalAlign=middle;resizable=0;points=[];autosize=1;fontSize=16;" vertex="1" parent="1">
          <mxGeometry x="495" y="155" width="20" height="20" as="geometry" />
        </mxCell>
        <mxCell id="Dbl0NGnEPowPrqD8Mns5-44" value="0" style="text;html=1;align=center;verticalAlign=middle;resizable=0;points=[];autosize=1;fontSize=16;" vertex="1" parent="1">
          <mxGeometry x="295" y="195" width="20" height="20" as="geometry" />
        </mxCell>
        <mxCell id="Dbl0NGnEPowPrqD8Mns5-45" value="0" style="text;html=1;align=center;verticalAlign=middle;resizable=0;points=[];autosize=1;fontSize=16;" vertex="1" parent="1">
          <mxGeometry x="165" y="235" width="20" height="20" as="geometry" />
        </mxCell>
        <mxCell id="Dbl0NGnEPowPrqD8Mns5-46" value="1" style="rounded=0;whiteSpace=wrap;html=1;fontSize=16;" vertex="1" parent="1">
          <mxGeometry x="160" y="360" width="40" height="40" as="geometry" />
        </mxCell>
        <mxCell id="Dbl0NGnEPowPrqD8Mns5-47" value="2" style="rounded=0;whiteSpace=wrap;html=1;fontSize=16;" vertex="1" parent="1">
          <mxGeometry x="160" y="400" width="40" height="40" as="geometry" />
        </mxCell>
        <mxCell id="Dbl0NGnEPowPrqD8Mns5-48" value="3" style="rounded=0;whiteSpace=wrap;html=1;fontSize=16;" vertex="1" parent="1">
          <mxGeometry x="160" y="440" width="40" height="40" as="geometry" />
        </mxCell>
        <mxCell id="Dbl0NGnEPowPrqD8Mns5-49" value="3" style="rounded=0;whiteSpace=wrap;html=1;fontSize=16;" vertex="1" parent="1">
          <mxGeometry x="160" y="480" width="40" height="40" as="geometry" />
        </mxCell>
        <mxCell id="Dbl0NGnEPowPrqD8Mns5-54" value="2" style="rounded=0;whiteSpace=wrap;html=1;fontSize=16;fillColor=#ffe6cc;strokeColor=#d79b00;" vertex="1" parent="1">
          <mxGeometry x="200" y="360" width="40" height="40" as="geometry" />
        </mxCell>
        <mxCell id="Dbl0NGnEPowPrqD8Mns5-55" value="2" style="rounded=0;whiteSpace=wrap;html=1;fontSize=16;fillColor=#dae8fc;strokeColor=#6c8ebf;" vertex="1" parent="1">
          <mxGeometry x="200" y="400" width="40" height="40" as="geometry" />
        </mxCell>
        <mxCell id="Dbl0NGnEPowPrqD8Mns5-56" value="1" style="rounded=0;whiteSpace=wrap;html=1;fontSize=16;fillColor=#ffcc99;strokeColor=#36393d;" vertex="1" parent="1">
          <mxGeometry x="200" y="440" width="40" height="40" as="geometry" />
        </mxCell>
        <mxCell id="Dbl0NGnEPowPrqD8Mns5-57" value="1" style="rounded=0;whiteSpace=wrap;html=1;fontSize=16;fillColor=#e1d5e7;strokeColor=#9673a6;" vertex="1" parent="1">
          <mxGeometry x="200" y="480" width="40" height="40" as="geometry" />
        </mxCell>
        <mxCell id="Dbl0NGnEPowPrqD8Mns5-58" value="2" style="rounded=0;whiteSpace=wrap;html=1;fontSize=20;" vertex="1" parent="1">
          <mxGeometry x="285" y="360" width="40" height="40" as="geometry" />
        </mxCell>
        <mxCell id="Dbl0NGnEPowPrqD8Mns5-59" value="4" style="rounded=0;whiteSpace=wrap;html=1;fontSize=20;" vertex="1" parent="1">
          <mxGeometry x="285" y="400" width="40" height="40" as="geometry" />
        </mxCell>
        <mxCell id="Dbl0NGnEPowPrqD8Mns5-60" value="3" style="rounded=0;whiteSpace=wrap;html=1;fontSize=20;" vertex="1" parent="1">
          <mxGeometry x="285" y="440" width="40" height="40" as="geometry" />
        </mxCell>
        <mxCell id="Dbl0NGnEPowPrqD8Mns5-61" value="3" style="rounded=0;whiteSpace=wrap;html=1;fontSize=20;" vertex="1" parent="1">
          <mxGeometry x="285" y="480" width="40" height="40" as="geometry" />
        </mxCell>
        <mxCell id="Dbl0NGnEPowPrqD8Mns5-62" value="" style="edgeStyle=orthogonalEdgeStyle;rounded=0;orthogonalLoop=1;jettySize=auto;html=1;fontSize=16;" edge="1" source="Dbl0NGnEPowPrqD8Mns5-63" target="Dbl0NGnEPowPrqD8Mns5-66" parent="1">
          <mxGeometry relative="1" as="geometry" />
        </mxCell>
        <mxCell id="Dbl0NGnEPowPrqD8Mns5-63" value="6" style="rounded=0;whiteSpace=wrap;html=1;fontSize=16;fillColor=#ffe6cc;strokeColor=#d79b00;" vertex="1" parent="1">
          <mxGeometry x="400" y="417.5" width="40" height="40" as="geometry" />
        </mxCell>
        <mxCell id="Dbl0NGnEPowPrqD8Mns5-64" value="" style="edgeStyle=orthogonalEdgeStyle;rounded=0;orthogonalLoop=1;jettySize=auto;html=1;fontSize=16;" edge="1" source="Dbl0NGnEPowPrqD8Mns5-65" target="Dbl0NGnEPowPrqD8Mns5-66" parent="1">
          <mxGeometry relative="1" as="geometry" />
        </mxCell>
        <mxCell id="Dbl0NGnEPowPrqD8Mns5-65" value="12" style="rounded=0;whiteSpace=wrap;html=1;fontSize=16;fillColor=#dae8fc;strokeColor=#6c8ebf;" vertex="1" parent="1">
          <mxGeometry x="400" y="382.5" width="40" height="40" as="geometry" />
        </mxCell>
        <mxCell id="Dbl0NGnEPowPrqD8Mns5-66" value="2" style="rounded=0;whiteSpace=wrap;html=1;fontSize=16;fillColor=#fff2cc;strokeColor=#d6b656;" vertex="1" parent="1">
          <mxGeometry x="520" y="402.5" width="40" height="40" as="geometry" />
        </mxCell>
        <mxCell id="Dbl0NGnEPowPrqD8Mns5-71" value="Lavg" style="text;html=1;align=center;verticalAlign=middle;resizable=0;points=[];autosize=1;fontSize=20;fillColor=#eeeeee;strokeColor=#36393d;fontStyle=1" vertex="1" parent="1">
          <mxGeometry x="465" y="340" width="60" height="30" as="geometry" />
        </mxCell>
        <mxCell id="Dbl0NGnEPowPrqD8Mns5-72" value="1" style="rounded=0;whiteSpace=wrap;html=1;fontSize=16;fillColor=#ffe6cc;strokeColor=#d79b00;" vertex="1" parent="1">
          <mxGeometry x="480" y="480" width="40" height="40" as="geometry" />
        </mxCell>
        <mxCell id="Dbl0NGnEPowPrqD8Mns5-73" value="00" style="rounded=0;whiteSpace=wrap;html=1;fontSize=16;fillColor=#dae8fc;strokeColor=#6c8ebf;" vertex="1" parent="1">
          <mxGeometry x="520" y="480" width="40" height="40" as="geometry" />
        </mxCell>
        <mxCell id="Dbl0NGnEPowPrqD8Mns5-74" value="010" style="rounded=0;whiteSpace=wrap;html=1;fontSize=16;fillColor=#ffcc99;strokeColor=#36393d;" vertex="1" parent="1">
          <mxGeometry x="560" y="480" width="40" height="40" as="geometry" />
        </mxCell>
        <mxCell id="Dbl0NGnEPowPrqD8Mns5-75" value="011" style="rounded=0;whiteSpace=wrap;html=1;fontSize=16;fillColor=#e1d5e7;strokeColor=#9673a6;" vertex="1" parent="1">
          <mxGeometry x="600" y="480" width="40" height="40" as="geometry" />
        </mxCell>
      </root>
    </mxGraphModel>
  </diagram>
  <diagram id="JF-dGesvT1U8IwhHxgDm" name="Nama Kakak">
    <mxGraphModel dx="1552" dy="811" grid="1" gridSize="10" guides="1" tooltips="1" connect="1" arrows="1" fold="1" page="1" pageScale="1" pageWidth="1920" pageHeight="1200" math="0" shadow="0">
      <root>
        <mxCell id="IYaacCzt3TlYQdoAjtVo-0" />
        <mxCell id="IYaacCzt3TlYQdoAjtVo-1" parent="IYaacCzt3TlYQdoAjtVo-0" />
        <mxCell id="HP5NxUDlmr7RwYxlix9t-0" value="Nama kakak : &lt;b&gt;Maharani&lt;/b&gt;" style="text;html=1;align=center;verticalAlign=middle;resizable=0;points=[];autosize=1;fontSize=20;" vertex="1" parent="IYaacCzt3TlYQdoAjtVo-1">
          <mxGeometry x="80" y="50" width="230" height="30" as="geometry" />
        </mxCell>
        <mxCell id="xMt8vIE2WNYGCzZYsoHJ-0" value="A" style="rounded=0;whiteSpace=wrap;html=1;fontSize=16;" vertex="1" parent="IYaacCzt3TlYQdoAjtVo-1">
          <mxGeometry x="80" y="120" width="40" height="40" as="geometry" />
        </mxCell>
        <mxCell id="xMt8vIE2WNYGCzZYsoHJ-1" value="H" style="rounded=0;whiteSpace=wrap;html=1;fontSize=16;" vertex="1" parent="IYaacCzt3TlYQdoAjtVo-1">
          <mxGeometry x="80" y="160" width="40" height="40" as="geometry" />
        </mxCell>
        <mxCell id="xMt8vIE2WNYGCzZYsoHJ-2" value="I" style="rounded=0;whiteSpace=wrap;html=1;fontSize=16;" vertex="1" parent="IYaacCzt3TlYQdoAjtVo-1">
          <mxGeometry x="80" y="200" width="40" height="40" as="geometry" />
        </mxCell>
        <mxCell id="xMt8vIE2WNYGCzZYsoHJ-3" value="M" style="rounded=0;whiteSpace=wrap;html=1;fontSize=16;" vertex="1" parent="IYaacCzt3TlYQdoAjtVo-1">
          <mxGeometry x="80" y="240" width="40" height="40" as="geometry" />
        </mxCell>
        <mxCell id="xMt8vIE2WNYGCzZYsoHJ-4" value="N" style="rounded=0;whiteSpace=wrap;html=1;fontSize=16;" vertex="1" parent="IYaacCzt3TlYQdoAjtVo-1">
          <mxGeometry x="80" y="280" width="40" height="40" as="geometry" />
        </mxCell>
        <mxCell id="xMt8vIE2WNYGCzZYsoHJ-5" value="R" style="rounded=0;whiteSpace=wrap;html=1;fontSize=16;" vertex="1" parent="IYaacCzt3TlYQdoAjtVo-1">
          <mxGeometry x="80" y="320" width="40" height="40" as="geometry" />
        </mxCell>
        <mxCell id="xMt8vIE2WNYGCzZYsoHJ-73" value="" style="edgeStyle=none;rounded=0;orthogonalLoop=1;jettySize=auto;html=1;fontSize=16;entryX=0;entryY=0.5;entryDx=0;entryDy=0;" edge="1" parent="IYaacCzt3TlYQdoAjtVo-1" source="xMt8vIE2WNYGCzZYsoHJ-6" target="xMt8vIE2WNYGCzZYsoHJ-15">
          <mxGeometry relative="1" as="geometry" />
        </mxCell>
        <mxCell id="xMt8vIE2WNYGCzZYsoHJ-6" value="3" style="rounded=0;whiteSpace=wrap;html=1;fontSize=16;fillColor=#cce5ff;strokeColor=#36393d;" vertex="1" parent="IYaacCzt3TlYQdoAjtVo-1">
          <mxGeometry x="120" y="120" width="40" height="40" as="geometry" />
        </mxCell>
        <mxCell id="xMt8vIE2WNYGCzZYsoHJ-75" value="" style="edgeStyle=none;rounded=0;orthogonalLoop=1;jettySize=auto;html=1;fontSize=16;entryX=0;entryY=0.5;entryDx=0;entryDy=0;" edge="1" parent="IYaacCzt3TlYQdoAjtVo-1" source="xMt8vIE2WNYGCzZYsoHJ-7" target="xMt8vIE2WNYGCzZYsoHJ-16">
          <mxGeometry relative="1" as="geometry" />
        </mxCell>
        <mxCell id="xMt8vIE2WNYGCzZYsoHJ-7" value="1" style="rounded=0;whiteSpace=wrap;html=1;fontSize=16;fillColor=#ffcccc;strokeColor=#36393d;" vertex="1" parent="IYaacCzt3TlYQdoAjtVo-1">
          <mxGeometry x="120" y="160" width="40" height="40" as="geometry" />
        </mxCell>
        <mxCell id="xMt8vIE2WNYGCzZYsoHJ-76" value="" style="edgeStyle=none;rounded=0;orthogonalLoop=1;jettySize=auto;html=1;fontSize=16;entryX=0;entryY=0.5;entryDx=0;entryDy=0;" edge="1" parent="IYaacCzt3TlYQdoAjtVo-1" source="xMt8vIE2WNYGCzZYsoHJ-8" target="xMt8vIE2WNYGCzZYsoHJ-17">
          <mxGeometry relative="1" as="geometry" />
        </mxCell>
        <mxCell id="xMt8vIE2WNYGCzZYsoHJ-8" value="1" style="rounded=0;whiteSpace=wrap;html=1;fontSize=16;fillColor=#ffcc99;strokeColor=#36393d;" vertex="1" parent="IYaacCzt3TlYQdoAjtVo-1">
          <mxGeometry x="120" y="200" width="40" height="40" as="geometry" />
        </mxCell>
        <mxCell id="xMt8vIE2WNYGCzZYsoHJ-78" value="" style="edgeStyle=none;rounded=0;orthogonalLoop=1;jettySize=auto;html=1;fontSize=16;" edge="1" parent="IYaacCzt3TlYQdoAjtVo-1" source="xMt8vIE2WNYGCzZYsoHJ-9" target="xMt8vIE2WNYGCzZYsoHJ-18">
          <mxGeometry relative="1" as="geometry" />
        </mxCell>
        <mxCell id="xMt8vIE2WNYGCzZYsoHJ-9" value="1" style="rounded=0;whiteSpace=wrap;html=1;fontSize=16;fillColor=#f9f7ed;strokeColor=#36393d;" vertex="1" parent="IYaacCzt3TlYQdoAjtVo-1">
          <mxGeometry x="120" y="240" width="40" height="40" as="geometry" />
        </mxCell>
        <mxCell id="xMt8vIE2WNYGCzZYsoHJ-13" value="" style="edgeStyle=orthogonalEdgeStyle;rounded=0;orthogonalLoop=1;jettySize=auto;html=1;fontSize=16;" edge="1" parent="IYaacCzt3TlYQdoAjtVo-1" source="xMt8vIE2WNYGCzZYsoHJ-10" target="xMt8vIE2WNYGCzZYsoHJ-12">
          <mxGeometry relative="1" as="geometry" />
        </mxCell>
        <mxCell id="xMt8vIE2WNYGCzZYsoHJ-10" value="1" style="rounded=0;whiteSpace=wrap;html=1;fontSize=16;fillColor=#eeeeee;strokeColor=#36393d;" vertex="1" parent="IYaacCzt3TlYQdoAjtVo-1">
          <mxGeometry x="120" y="280" width="40" height="40" as="geometry" />
        </mxCell>
        <mxCell id="xMt8vIE2WNYGCzZYsoHJ-14" value="" style="edgeStyle=orthogonalEdgeStyle;rounded=0;orthogonalLoop=1;jettySize=auto;html=1;fontSize=16;" edge="1" parent="IYaacCzt3TlYQdoAjtVo-1" source="xMt8vIE2WNYGCzZYsoHJ-11" target="xMt8vIE2WNYGCzZYsoHJ-12">
          <mxGeometry relative="1" as="geometry" />
        </mxCell>
        <mxCell id="xMt8vIE2WNYGCzZYsoHJ-11" value="1" style="rounded=0;whiteSpace=wrap;html=1;fontSize=16;fillColor=#e1d5e7;strokeColor=#9673a6;" vertex="1" parent="IYaacCzt3TlYQdoAjtVo-1">
          <mxGeometry x="120" y="320" width="40" height="40" as="geometry" />
        </mxCell>
        <mxCell id="xMt8vIE2WNYGCzZYsoHJ-33" value="" style="edgeStyle=none;rounded=0;orthogonalLoop=1;jettySize=auto;html=1;fontSize=16;entryX=0;entryY=0.5;entryDx=0;entryDy=0;exitX=1;exitY=0.5;exitDx=0;exitDy=0;" edge="1" parent="IYaacCzt3TlYQdoAjtVo-1" source="xMt8vIE2WNYGCzZYsoHJ-12" target="xMt8vIE2WNYGCzZYsoHJ-22">
          <mxGeometry relative="1" as="geometry" />
        </mxCell>
        <mxCell id="xMt8vIE2WNYGCzZYsoHJ-12" value="2" style="rounded=0;whiteSpace=wrap;html=1;fontSize=16;fillColor=#eeeeee;strokeColor=#36393d;" vertex="1" parent="IYaacCzt3TlYQdoAjtVo-1">
          <mxGeometry x="240" y="300" width="40" height="40" as="geometry" />
        </mxCell>
        <mxCell id="xMt8vIE2WNYGCzZYsoHJ-15" value="3" style="rounded=0;whiteSpace=wrap;html=1;fontSize=16;fillColor=#cce5ff;strokeColor=#36393d;" vertex="1" parent="IYaacCzt3TlYQdoAjtVo-1">
          <mxGeometry x="1000" y="120" width="40" height="40" as="geometry" />
        </mxCell>
        <mxCell id="xMt8vIE2WNYGCzZYsoHJ-79" value="" style="edgeStyle=none;rounded=0;orthogonalLoop=1;jettySize=auto;html=1;fontSize=16;entryX=0;entryY=0.75;entryDx=0;entryDy=0;exitX=1;exitY=0.5;exitDx=0;exitDy=0;" edge="1" parent="IYaacCzt3TlYQdoAjtVo-1" source="xMt8vIE2WNYGCzZYsoHJ-16" target="xMt8vIE2WNYGCzZYsoHJ-30">
          <mxGeometry relative="1" as="geometry" />
        </mxCell>
        <mxCell id="xMt8vIE2WNYGCzZYsoHJ-16" value="1" style="rounded=0;whiteSpace=wrap;html=1;fontSize=16;fillColor=#ffcccc;strokeColor=#36393d;" vertex="1" parent="IYaacCzt3TlYQdoAjtVo-1">
          <mxGeometry x="400" y="160" width="40" height="40" as="geometry" />
        </mxCell>
        <mxCell id="xMt8vIE2WNYGCzZYsoHJ-81" value="" style="edgeStyle=none;rounded=0;orthogonalLoop=1;jettySize=auto;html=1;fontSize=16;entryX=0;entryY=0.5;entryDx=0;entryDy=0;" edge="1" parent="IYaacCzt3TlYQdoAjtVo-1" source="xMt8vIE2WNYGCzZYsoHJ-17" target="xMt8vIE2WNYGCzZYsoHJ-26">
          <mxGeometry relative="1" as="geometry" />
        </mxCell>
        <mxCell id="xMt8vIE2WNYGCzZYsoHJ-17" value="1" style="rounded=0;whiteSpace=wrap;html=1;fontSize=16;fillColor=#ffcc99;strokeColor=#36393d;" vertex="1" parent="IYaacCzt3TlYQdoAjtVo-1">
          <mxGeometry x="320" y="200" width="40" height="40" as="geometry" />
        </mxCell>
        <mxCell id="xMt8vIE2WNYGCzZYsoHJ-34" value="" style="edgeStyle=none;rounded=0;orthogonalLoop=1;jettySize=auto;html=1;fontSize=16;exitX=1;exitY=0.5;exitDx=0;exitDy=0;" edge="1" parent="IYaacCzt3TlYQdoAjtVo-1" source="xMt8vIE2WNYGCzZYsoHJ-18">
          <mxGeometry relative="1" as="geometry">
            <mxPoint x="320" y="320" as="targetPoint" />
          </mxGeometry>
        </mxCell>
        <mxCell id="xMt8vIE2WNYGCzZYsoHJ-18" value="1" style="rounded=0;whiteSpace=wrap;html=1;fontSize=16;fillColor=#f9f7ed;strokeColor=#36393d;" vertex="1" parent="IYaacCzt3TlYQdoAjtVo-1">
          <mxGeometry x="240" y="240" width="40" height="40" as="geometry" />
        </mxCell>
        <mxCell id="xMt8vIE2WNYGCzZYsoHJ-35" value="" style="edgeStyle=none;rounded=0;orthogonalLoop=1;jettySize=auto;html=1;fontSize=16;entryX=0;entryY=0.5;entryDx=0;entryDy=0;exitX=1;exitY=0.5;exitDx=0;exitDy=0;" edge="1" parent="IYaacCzt3TlYQdoAjtVo-1" source="xMt8vIE2WNYGCzZYsoHJ-22" target="xMt8vIE2WNYGCzZYsoHJ-25">
          <mxGeometry relative="1" as="geometry" />
        </mxCell>
        <mxCell id="xMt8vIE2WNYGCzZYsoHJ-22" value="2" style="rounded=0;whiteSpace=wrap;html=1;fontSize=16;fillColor=#eeeeee;strokeColor=#36393d;" vertex="1" parent="IYaacCzt3TlYQdoAjtVo-1">
          <mxGeometry x="320" y="240" width="40" height="40" as="geometry" />
        </mxCell>
        <mxCell id="xMt8vIE2WNYGCzZYsoHJ-36" value="" style="edgeStyle=none;rounded=0;orthogonalLoop=1;jettySize=auto;html=1;fontSize=16;entryX=0;entryY=0.5;entryDx=0;entryDy=0;exitX=1;exitY=0.5;exitDx=0;exitDy=0;" edge="1" parent="IYaacCzt3TlYQdoAjtVo-1" source="xMt8vIE2WNYGCzZYsoHJ-25" target="xMt8vIE2WNYGCzZYsoHJ-29">
          <mxGeometry relative="1" as="geometry">
            <mxPoint x="450" y="220" as="sourcePoint" />
          </mxGeometry>
        </mxCell>
        <mxCell id="xMt8vIE2WNYGCzZYsoHJ-25" value="2" style="rounded=0;whiteSpace=wrap;html=1;fontSize=16;fillColor=#eeeeee;strokeColor=#36393d;" vertex="1" parent="IYaacCzt3TlYQdoAjtVo-1">
          <mxGeometry x="400" y="200" width="40" height="40" as="geometry" />
        </mxCell>
        <mxCell id="xMt8vIE2WNYGCzZYsoHJ-80" value="" style="edgeStyle=none;rounded=0;orthogonalLoop=1;jettySize=auto;html=1;fontSize=16;" edge="1" parent="IYaacCzt3TlYQdoAjtVo-1" source="xMt8vIE2WNYGCzZYsoHJ-26" target="xMt8vIE2WNYGCzZYsoHJ-31">
          <mxGeometry relative="1" as="geometry" />
        </mxCell>
        <mxCell id="xMt8vIE2WNYGCzZYsoHJ-26" value="1" style="rounded=0;whiteSpace=wrap;html=1;fontSize=16;fillColor=#ffcc99;strokeColor=#36393d;" vertex="1" parent="IYaacCzt3TlYQdoAjtVo-1">
          <mxGeometry x="400" y="240" width="40" height="40" as="geometry" />
        </mxCell>
        <mxCell id="xMt8vIE2WNYGCzZYsoHJ-84" value="" style="edgeStyle=none;rounded=0;orthogonalLoop=1;jettySize=auto;html=1;fontSize=16;" edge="1" parent="IYaacCzt3TlYQdoAjtVo-1" source="xMt8vIE2WNYGCzZYsoHJ-27" target="xMt8vIE2WNYGCzZYsoHJ-32">
          <mxGeometry relative="1" as="geometry" />
        </mxCell>
        <mxCell id="xMt8vIE2WNYGCzZYsoHJ-27" value="1" style="rounded=0;whiteSpace=wrap;html=1;fontSize=16;fillColor=#f9f7ed;strokeColor=#36393d;" vertex="1" parent="IYaacCzt3TlYQdoAjtVo-1">
          <mxGeometry x="330" y="300" width="40" height="40" as="geometry" />
        </mxCell>
        <mxCell id="xMt8vIE2WNYGCzZYsoHJ-83" value="" style="edgeStyle=none;rounded=0;orthogonalLoop=1;jettySize=auto;html=1;fontSize=16;entryX=0;entryY=0.5;entryDx=0;entryDy=0;" edge="1" parent="IYaacCzt3TlYQdoAjtVo-1" source="xMt8vIE2WNYGCzZYsoHJ-29" target="xMt8vIE2WNYGCzZYsoHJ-42">
          <mxGeometry relative="1" as="geometry" />
        </mxCell>
        <mxCell id="xMt8vIE2WNYGCzZYsoHJ-29" value="2" style="rounded=0;whiteSpace=wrap;html=1;fontSize=16;fillColor=#eeeeee;strokeColor=#36393d;" vertex="1" parent="IYaacCzt3TlYQdoAjtVo-1">
          <mxGeometry x="480" y="160" width="40" height="40" as="geometry" />
        </mxCell>
        <mxCell id="xMt8vIE2WNYGCzZYsoHJ-82" value="" style="edgeStyle=none;rounded=0;orthogonalLoop=1;jettySize=auto;html=1;fontSize=16;" edge="1" parent="IYaacCzt3TlYQdoAjtVo-1" source="xMt8vIE2WNYGCzZYsoHJ-30" target="xMt8vIE2WNYGCzZYsoHJ-43">
          <mxGeometry relative="1" as="geometry" />
        </mxCell>
        <mxCell id="xMt8vIE2WNYGCzZYsoHJ-30" value="1" style="rounded=0;whiteSpace=wrap;html=1;fontSize=16;fillColor=#ffcccc;strokeColor=#36393d;" vertex="1" parent="IYaacCzt3TlYQdoAjtVo-1">
          <mxGeometry x="480" y="200" width="40" height="40" as="geometry" />
        </mxCell>
        <mxCell id="xMt8vIE2WNYGCzZYsoHJ-39" value="" style="edgeStyle=orthogonalEdgeStyle;rounded=0;orthogonalLoop=1;jettySize=auto;html=1;fontSize=16;" edge="1" parent="IYaacCzt3TlYQdoAjtVo-1" source="xMt8vIE2WNYGCzZYsoHJ-31" target="xMt8vIE2WNYGCzZYsoHJ-38">
          <mxGeometry relative="1" as="geometry" />
        </mxCell>
        <mxCell id="xMt8vIE2WNYGCzZYsoHJ-31" value="1" style="rounded=0;whiteSpace=wrap;html=1;fontSize=16;fillColor=#ffcc99;strokeColor=#36393d;" vertex="1" parent="IYaacCzt3TlYQdoAjtVo-1">
          <mxGeometry x="480" y="240" width="40" height="40" as="geometry" />
        </mxCell>
        <mxCell id="xMt8vIE2WNYGCzZYsoHJ-40" value="" style="edgeStyle=orthogonalEdgeStyle;rounded=0;orthogonalLoop=1;jettySize=auto;html=1;fontSize=16;" edge="1" parent="IYaacCzt3TlYQdoAjtVo-1" source="xMt8vIE2WNYGCzZYsoHJ-32" target="xMt8vIE2WNYGCzZYsoHJ-38">
          <mxGeometry relative="1" as="geometry" />
        </mxCell>
        <mxCell id="xMt8vIE2WNYGCzZYsoHJ-32" value="1" style="rounded=0;whiteSpace=wrap;html=1;fontSize=16;fillColor=#eeeeee;strokeColor=#36393d;" vertex="1" parent="IYaacCzt3TlYQdoAjtVo-1">
          <mxGeometry x="480" y="300" width="40" height="40" as="geometry" />
        </mxCell>
        <mxCell id="xMt8vIE2WNYGCzZYsoHJ-37" style="edgeStyle=none;rounded=0;orthogonalLoop=1;jettySize=auto;html=1;entryX=1;entryY=0.75;entryDx=0;entryDy=0;fontSize=16;" edge="1" parent="IYaacCzt3TlYQdoAjtVo-1" source="xMt8vIE2WNYGCzZYsoHJ-25" target="xMt8vIE2WNYGCzZYsoHJ-25">
          <mxGeometry relative="1" as="geometry" />
        </mxCell>
        <mxCell id="xMt8vIE2WNYGCzZYsoHJ-48" value="" style="edgeStyle=none;rounded=0;orthogonalLoop=1;jettySize=auto;html=1;fontSize=16;entryX=0;entryY=0.25;entryDx=0;entryDy=0;exitX=1;exitY=0.5;exitDx=0;exitDy=0;" edge="1" parent="IYaacCzt3TlYQdoAjtVo-1" source="xMt8vIE2WNYGCzZYsoHJ-38" target="xMt8vIE2WNYGCzZYsoHJ-46">
          <mxGeometry relative="1" as="geometry" />
        </mxCell>
        <mxCell id="xMt8vIE2WNYGCzZYsoHJ-38" value="2" style="rounded=0;whiteSpace=wrap;html=1;fontSize=16;fillColor=#ffcc99;strokeColor=#36393d;" vertex="1" parent="IYaacCzt3TlYQdoAjtVo-1">
          <mxGeometry x="600" y="270" width="40" height="40" as="geometry" />
        </mxCell>
        <mxCell id="xMt8vIE2WNYGCzZYsoHJ-42" value="2" style="rounded=0;whiteSpace=wrap;html=1;fontSize=16;fillColor=#eeeeee;strokeColor=#36393d;" vertex="1" parent="IYaacCzt3TlYQdoAjtVo-1">
          <mxGeometry x="800" y="160" width="40" height="40" as="geometry" />
        </mxCell>
        <mxCell id="xMt8vIE2WNYGCzZYsoHJ-49" value="" style="edgeStyle=none;rounded=0;orthogonalLoop=1;jettySize=auto;html=1;fontSize=16;entryX=0;entryY=0.5;entryDx=0;entryDy=0;exitX=1;exitY=0.5;exitDx=0;exitDy=0;" edge="1" parent="IYaacCzt3TlYQdoAjtVo-1" source="xMt8vIE2WNYGCzZYsoHJ-43" target="xMt8vIE2WNYGCzZYsoHJ-47">
          <mxGeometry relative="1" as="geometry" />
        </mxCell>
        <mxCell id="xMt8vIE2WNYGCzZYsoHJ-43" value="1" style="rounded=0;whiteSpace=wrap;html=1;fontSize=16;fillColor=#ffcccc;strokeColor=#36393d;" vertex="1" parent="IYaacCzt3TlYQdoAjtVo-1">
          <mxGeometry x="600" y="200" width="40" height="40" as="geometry" />
        </mxCell>
        <mxCell id="xMt8vIE2WNYGCzZYsoHJ-51" value="" style="edgeStyle=orthogonalEdgeStyle;rounded=0;orthogonalLoop=1;jettySize=auto;html=1;fontSize=16;" edge="1" parent="IYaacCzt3TlYQdoAjtVo-1" source="xMt8vIE2WNYGCzZYsoHJ-46" target="xMt8vIE2WNYGCzZYsoHJ-50">
          <mxGeometry relative="1" as="geometry" />
        </mxCell>
        <mxCell id="xMt8vIE2WNYGCzZYsoHJ-46" value="2" style="rounded=0;whiteSpace=wrap;html=1;fontSize=16;fillColor=#ffcc99;strokeColor=#36393d;" vertex="1" parent="IYaacCzt3TlYQdoAjtVo-1">
          <mxGeometry x="680" y="200" width="40" height="40" as="geometry" />
        </mxCell>
        <mxCell id="xMt8vIE2WNYGCzZYsoHJ-52" value="" style="edgeStyle=orthogonalEdgeStyle;rounded=0;orthogonalLoop=1;jettySize=auto;html=1;fontSize=16;" edge="1" parent="IYaacCzt3TlYQdoAjtVo-1" source="xMt8vIE2WNYGCzZYsoHJ-47" target="xMt8vIE2WNYGCzZYsoHJ-50">
          <mxGeometry relative="1" as="geometry" />
        </mxCell>
        <mxCell id="xMt8vIE2WNYGCzZYsoHJ-47" value="1" style="rounded=0;whiteSpace=wrap;html=1;fontSize=16;fillColor=#ffcccc;strokeColor=#36393d;" vertex="1" parent="IYaacCzt3TlYQdoAjtVo-1">
          <mxGeometry x="680" y="265" width="40" height="40" as="geometry" />
        </mxCell>
        <mxCell id="xMt8vIE2WNYGCzZYsoHJ-59" value="" style="edgeStyle=none;rounded=0;orthogonalLoop=1;jettySize=auto;html=1;fontSize=16;entryX=0;entryY=0.5;entryDx=0;entryDy=0;exitX=1;exitY=0.75;exitDx=0;exitDy=0;" edge="1" parent="IYaacCzt3TlYQdoAjtVo-1" source="xMt8vIE2WNYGCzZYsoHJ-50" target="xMt8vIE2WNYGCzZYsoHJ-56">
          <mxGeometry relative="1" as="geometry" />
        </mxCell>
        <mxCell id="xMt8vIE2WNYGCzZYsoHJ-50" value="3" style="rounded=0;whiteSpace=wrap;html=1;fontSize=16;fillColor=#ffcccc;strokeColor=#36393d;" vertex="1" parent="IYaacCzt3TlYQdoAjtVo-1">
          <mxGeometry x="800" y="240" width="40" height="40" as="geometry" />
        </mxCell>
        <mxCell id="xMt8vIE2WNYGCzZYsoHJ-58" value="" style="edgeStyle=none;rounded=0;orthogonalLoop=1;jettySize=auto;html=1;fontSize=16;entryX=0;entryY=0.5;entryDx=0;entryDy=0;exitX=1;exitY=0.5;exitDx=0;exitDy=0;" edge="1" parent="IYaacCzt3TlYQdoAjtVo-1" target="xMt8vIE2WNYGCzZYsoHJ-57">
          <mxGeometry relative="1" as="geometry">
            <mxPoint x="840" y="180" as="sourcePoint" />
          </mxGeometry>
        </mxCell>
        <mxCell id="xMt8vIE2WNYGCzZYsoHJ-61" value="" style="edgeStyle=orthogonalEdgeStyle;rounded=0;orthogonalLoop=1;jettySize=auto;html=1;fontSize=16;" edge="1" parent="IYaacCzt3TlYQdoAjtVo-1" source="xMt8vIE2WNYGCzZYsoHJ-56" target="xMt8vIE2WNYGCzZYsoHJ-60">
          <mxGeometry relative="1" as="geometry" />
        </mxCell>
        <mxCell id="xMt8vIE2WNYGCzZYsoHJ-56" value="3" style="rounded=0;whiteSpace=wrap;html=1;fontSize=16;fillColor=#ffcccc;strokeColor=#36393d;" vertex="1" parent="IYaacCzt3TlYQdoAjtVo-1">
          <mxGeometry x="900" y="160" width="40" height="40" as="geometry" />
        </mxCell>
        <mxCell id="xMt8vIE2WNYGCzZYsoHJ-62" value="" style="edgeStyle=orthogonalEdgeStyle;rounded=0;orthogonalLoop=1;jettySize=auto;html=1;fontSize=16;" edge="1" parent="IYaacCzt3TlYQdoAjtVo-1" source="xMt8vIE2WNYGCzZYsoHJ-57" target="xMt8vIE2WNYGCzZYsoHJ-60">
          <mxGeometry relative="1" as="geometry" />
        </mxCell>
        <mxCell id="xMt8vIE2WNYGCzZYsoHJ-57" value="2" style="rounded=0;whiteSpace=wrap;html=1;fontSize=16;fillColor=#eeeeee;strokeColor=#36393d;" vertex="1" parent="IYaacCzt3TlYQdoAjtVo-1">
          <mxGeometry x="900" y="240" width="40" height="40" as="geometry" />
        </mxCell>
        <mxCell id="xMt8vIE2WNYGCzZYsoHJ-68" value="" style="edgeStyle=none;rounded=0;orthogonalLoop=1;jettySize=auto;html=1;fontSize=16;exitX=1;exitY=0.5;exitDx=0;exitDy=0;entryX=0;entryY=0.5;entryDx=0;entryDy=0;" edge="1" parent="IYaacCzt3TlYQdoAjtVo-1" source="xMt8vIE2WNYGCzZYsoHJ-60" target="xMt8vIE2WNYGCzZYsoHJ-65">
          <mxGeometry relative="1" as="geometry" />
        </mxCell>
        <mxCell id="xMt8vIE2WNYGCzZYsoHJ-60" value="5" style="rounded=0;whiteSpace=wrap;html=1;fontSize=16;fillColor=#eeeeee;strokeColor=#36393d;" vertex="1" parent="IYaacCzt3TlYQdoAjtVo-1">
          <mxGeometry x="1000" y="200" width="40" height="40" as="geometry" />
        </mxCell>
        <mxCell id="xMt8vIE2WNYGCzZYsoHJ-66" value="" style="edgeStyle=none;rounded=0;orthogonalLoop=1;jettySize=auto;html=1;fontSize=16;entryX=0;entryY=0.75;entryDx=0;entryDy=0;exitX=1;exitY=0.5;exitDx=0;exitDy=0;" edge="1" parent="IYaacCzt3TlYQdoAjtVo-1" source="xMt8vIE2WNYGCzZYsoHJ-15" target="xMt8vIE2WNYGCzZYsoHJ-64">
          <mxGeometry relative="1" as="geometry">
            <mxPoint x="1000" y="140" as="sourcePoint" />
          </mxGeometry>
        </mxCell>
        <mxCell id="xMt8vIE2WNYGCzZYsoHJ-71" value="" style="edgeStyle=orthogonalEdgeStyle;rounded=0;orthogonalLoop=1;jettySize=auto;html=1;fontSize=16;" edge="1" parent="IYaacCzt3TlYQdoAjtVo-1" source="xMt8vIE2WNYGCzZYsoHJ-64" target="xMt8vIE2WNYGCzZYsoHJ-69">
          <mxGeometry relative="1" as="geometry" />
        </mxCell>
        <mxCell id="xMt8vIE2WNYGCzZYsoHJ-64" value="3" style="rounded=0;whiteSpace=wrap;html=1;fontSize=16;fillColor=#cce5ff;strokeColor=#36393d;" vertex="1" parent="IYaacCzt3TlYQdoAjtVo-1">
          <mxGeometry x="1080" y="200" width="40" height="40" as="geometry" />
        </mxCell>
        <mxCell id="xMt8vIE2WNYGCzZYsoHJ-70" value="" style="edgeStyle=orthogonalEdgeStyle;rounded=0;orthogonalLoop=1;jettySize=auto;html=1;fontSize=16;" edge="1" parent="IYaacCzt3TlYQdoAjtVo-1" source="xMt8vIE2WNYGCzZYsoHJ-65" target="xMt8vIE2WNYGCzZYsoHJ-69">
          <mxGeometry relative="1" as="geometry" />
        </mxCell>
        <mxCell id="xMt8vIE2WNYGCzZYsoHJ-65" value="5" style="rounded=0;whiteSpace=wrap;html=1;fontSize=16;fillColor=#eeeeee;strokeColor=#36393d;" vertex="1" parent="IYaacCzt3TlYQdoAjtVo-1">
          <mxGeometry x="1080" y="120" width="40" height="40" as="geometry" />
        </mxCell>
        <mxCell id="xMt8vIE2WNYGCzZYsoHJ-69" value="8" style="rounded=0;whiteSpace=wrap;html=1;fontSize=16;fillColor=#fff2cc;strokeColor=#d6b656;" vertex="1" parent="IYaacCzt3TlYQdoAjtVo-1">
          <mxGeometry x="1200" y="160" width="40" height="40" as="geometry" />
        </mxCell>
        <mxCell id="xMt8vIE2WNYGCzZYsoHJ-77" style="edgeStyle=none;rounded=0;orthogonalLoop=1;jettySize=auto;html=1;exitX=0;exitY=0.25;exitDx=0;exitDy=0;fontSize=16;" edge="1" parent="IYaacCzt3TlYQdoAjtVo-1">
          <mxGeometry relative="1" as="geometry">
            <mxPoint x="320" y="210" as="sourcePoint" />
            <mxPoint x="320" y="210" as="targetPoint" />
          </mxGeometry>
        </mxCell>
        <mxCell id="xMt8vIE2WNYGCzZYsoHJ-85" style="edgeStyle=none;rounded=0;orthogonalLoop=1;jettySize=auto;html=1;exitX=0.25;exitY=0;exitDx=0;exitDy=0;fontSize=16;fillColor=#ffcccc;strokeColor=#36393d;" edge="1" parent="IYaacCzt3TlYQdoAjtVo-1" source="xMt8vIE2WNYGCzZYsoHJ-47" target="xMt8vIE2WNYGCzZYsoHJ-47">
          <mxGeometry relative="1" as="geometry" />
        </mxCell>
        <mxCell id="X-oYHk-fGSUhRYGRC5xT-0" value="A" style="rounded=0;whiteSpace=wrap;html=1;fontSize=14;" vertex="1" parent="IYaacCzt3TlYQdoAjtVo-1">
          <mxGeometry x="80" y="400" width="40" height="40" as="geometry" />
        </mxCell>
        <mxCell id="X-oYHk-fGSUhRYGRC5xT-1" value="H" style="rounded=0;whiteSpace=wrap;html=1;fontSize=14;" vertex="1" parent="IYaacCzt3TlYQdoAjtVo-1">
          <mxGeometry x="80" y="440" width="40" height="40" as="geometry" />
        </mxCell>
        <mxCell id="X-oYHk-fGSUhRYGRC5xT-2" value="I" style="rounded=0;whiteSpace=wrap;html=1;fontSize=14;" vertex="1" parent="IYaacCzt3TlYQdoAjtVo-1">
          <mxGeometry x="80" y="480" width="40" height="40" as="geometry" />
        </mxCell>
        <mxCell id="X-oYHk-fGSUhRYGRC5xT-3" value="M" style="rounded=0;whiteSpace=wrap;html=1;fontSize=14;" vertex="1" parent="IYaacCzt3TlYQdoAjtVo-1">
          <mxGeometry x="80" y="520" width="40" height="40" as="geometry" />
        </mxCell>
        <mxCell id="X-oYHk-fGSUhRYGRC5xT-4" value="N" style="rounded=0;whiteSpace=wrap;html=1;fontSize=14;" vertex="1" parent="IYaacCzt3TlYQdoAjtVo-1">
          <mxGeometry x="80" y="560" width="40" height="40" as="geometry" />
        </mxCell>
        <mxCell id="X-oYHk-fGSUhRYGRC5xT-5" value="R" style="rounded=0;whiteSpace=wrap;html=1;fontSize=14;" vertex="1" parent="IYaacCzt3TlYQdoAjtVo-1">
          <mxGeometry x="80" y="600" width="40" height="40" as="geometry" />
        </mxCell>
        <mxCell id="X-oYHk-fGSUhRYGRC5xT-6" value="1" style="rounded=0;whiteSpace=wrap;html=1;fontSize=14;fillColor=#cce5ff;strokeColor=#36393d;" vertex="1" parent="IYaacCzt3TlYQdoAjtVo-1">
          <mxGeometry x="120" y="400" width="50" height="40" as="geometry" />
        </mxCell>
        <mxCell id="X-oYHk-fGSUhRYGRC5xT-7" value="001" style="rounded=0;whiteSpace=wrap;html=1;fontSize=14;fillColor=#ffcccc;strokeColor=#36393d;" vertex="1" parent="IYaacCzt3TlYQdoAjtVo-1">
          <mxGeometry x="120" y="440" width="50" height="40" as="geometry" />
        </mxCell>
        <mxCell id="X-oYHk-fGSUhRYGRC5xT-8" value="0000" style="rounded=0;whiteSpace=wrap;html=1;fontSize=14;fillColor=#ffcc99;strokeColor=#36393d;" vertex="1" parent="IYaacCzt3TlYQdoAjtVo-1">
          <mxGeometry x="120" y="480" width="50" height="40" as="geometry" />
        </mxCell>
        <mxCell id="X-oYHk-fGSUhRYGRC5xT-9" value="00001" style="rounded=0;whiteSpace=wrap;html=1;fontSize=14;fillColor=#f9f7ed;strokeColor=#36393d;" vertex="1" parent="IYaacCzt3TlYQdoAjtVo-1">
          <mxGeometry x="120" y="520" width="50" height="40" as="geometry" />
        </mxCell>
        <mxCell id="X-oYHk-fGSUhRYGRC5xT-10" value="010" style="rounded=0;whiteSpace=wrap;html=1;fontSize=14;fillColor=#eeeeee;strokeColor=#36393d;" vertex="1" parent="IYaacCzt3TlYQdoAjtVo-1">
          <mxGeometry x="120" y="560" width="50" height="40" as="geometry" />
        </mxCell>
        <mxCell id="X-oYHk-fGSUhRYGRC5xT-11" value="011" style="rounded=0;whiteSpace=wrap;html=1;fontSize=14;fillColor=#e1d5e7;strokeColor=#9673a6;" vertex="1" parent="IYaacCzt3TlYQdoAjtVo-1">
          <mxGeometry x="120" y="600" width="50" height="40" as="geometry" />
        </mxCell>
        <mxCell id="X-oYHk-fGSUhRYGRC5xT-12" value="0" style="text;html=1;align=center;verticalAlign=middle;resizable=0;points=[];autosize=1;fontSize=16;" vertex="1" parent="IYaacCzt3TlYQdoAjtVo-1">
          <mxGeometry x="1125" y="105" width="20" height="20" as="geometry" />
        </mxCell>
        <mxCell id="X-oYHk-fGSUhRYGRC5xT-13" value="1" style="text;html=1;align=center;verticalAlign=middle;resizable=0;points=[];autosize=1;fontSize=16;" vertex="1" parent="IYaacCzt3TlYQdoAjtVo-1">
          <mxGeometry x="1135" y="230" width="20" height="20" as="geometry" />
        </mxCell>
        <mxCell id="X-oYHk-fGSUhRYGRC5xT-14" value="1" style="text;html=1;align=center;verticalAlign=middle;resizable=0;points=[];autosize=1;fontSize=16;" vertex="1" parent="IYaacCzt3TlYQdoAjtVo-1">
          <mxGeometry x="950" y="270" width="20" height="20" as="geometry" />
        </mxCell>
        <mxCell id="X-oYHk-fGSUhRYGRC5xT-15" value="0" style="text;html=1;align=center;verticalAlign=middle;resizable=0;points=[];autosize=1;fontSize=16;" vertex="1" parent="IYaacCzt3TlYQdoAjtVo-1">
          <mxGeometry x="950" y="150" width="20" height="20" as="geometry" />
        </mxCell>
        <mxCell id="X-oYHk-fGSUhRYGRC5xT-16" value="1" style="text;html=1;align=center;verticalAlign=middle;resizable=0;points=[];autosize=1;fontSize=16;" vertex="1" parent="IYaacCzt3TlYQdoAjtVo-1">
          <mxGeometry x="725" y="295" width="20" height="20" as="geometry" />
        </mxCell>
        <mxCell id="X-oYHk-fGSUhRYGRC5xT-17" value="1" style="text;html=1;align=center;verticalAlign=middle;resizable=0;points=[];autosize=1;fontSize=16;" vertex="1" parent="IYaacCzt3TlYQdoAjtVo-1">
          <mxGeometry x="535" y="330" width="20" height="20" as="geometry" />
        </mxCell>
        <mxCell id="X-oYHk-fGSUhRYGRC5xT-18" value="1" style="text;html=1;align=center;verticalAlign=middle;resizable=0;points=[];autosize=1;fontSize=16;" vertex="1" parent="IYaacCzt3TlYQdoAjtVo-1">
          <mxGeometry x="165" y="345" width="20" height="20" as="geometry" />
        </mxCell>
        <mxCell id="X-oYHk-fGSUhRYGRC5xT-19" value="0" style="text;html=1;align=center;verticalAlign=middle;resizable=0;points=[];autosize=1;fontSize=16;" vertex="1" parent="IYaacCzt3TlYQdoAjtVo-1">
          <mxGeometry x="725" y="195" width="20" height="20" as="geometry" />
        </mxCell>
        <mxCell id="X-oYHk-fGSUhRYGRC5xT-20" value="0" style="text;html=1;align=center;verticalAlign=middle;resizable=0;points=[];autosize=1;fontSize=16;" vertex="1" parent="IYaacCzt3TlYQdoAjtVo-1">
          <mxGeometry x="535" y="240" width="20" height="20" as="geometry" />
        </mxCell>
        <mxCell id="X-oYHk-fGSUhRYGRC5xT-21" value="0" style="text;html=1;align=center;verticalAlign=middle;resizable=0;points=[];autosize=1;fontSize=16;" vertex="1" parent="IYaacCzt3TlYQdoAjtVo-1">
          <mxGeometry x="175" y="275" width="20" height="20" as="geometry" />
        </mxCell>
        <mxCell id="1A0Sws4cIV2sIETGf90k-0" value="1" style="rounded=0;whiteSpace=wrap;html=1;fontSize=15;" vertex="1" parent="IYaacCzt3TlYQdoAjtVo-1">
          <mxGeometry x="170" y="400" width="40" height="40" as="geometry" />
        </mxCell>
        <mxCell id="1A0Sws4cIV2sIETGf90k-1" value="3" style="rounded=0;whiteSpace=wrap;html=1;fontSize=15;" vertex="1" parent="IYaacCzt3TlYQdoAjtVo-1">
          <mxGeometry x="170" y="440" width="40" height="40" as="geometry" />
        </mxCell>
        <mxCell id="1A0Sws4cIV2sIETGf90k-2" value="4" style="rounded=0;whiteSpace=wrap;html=1;fontSize=15;" vertex="1" parent="IYaacCzt3TlYQdoAjtVo-1">
          <mxGeometry x="170" y="480" width="40" height="40" as="geometry" />
        </mxCell>
        <mxCell id="1A0Sws4cIV2sIETGf90k-3" value="4" style="rounded=0;whiteSpace=wrap;html=1;fontSize=15;" vertex="1" parent="IYaacCzt3TlYQdoAjtVo-1">
          <mxGeometry x="170" y="520" width="40" height="40" as="geometry" />
        </mxCell>
        <mxCell id="1A0Sws4cIV2sIETGf90k-4" value="3" style="rounded=0;whiteSpace=wrap;html=1;fontSize=15;" vertex="1" parent="IYaacCzt3TlYQdoAjtVo-1">
          <mxGeometry x="170" y="560" width="40" height="40" as="geometry" />
        </mxCell>
        <mxCell id="1A0Sws4cIV2sIETGf90k-5" value="3" style="rounded=0;whiteSpace=wrap;html=1;fontSize=15;" vertex="1" parent="IYaacCzt3TlYQdoAjtVo-1">
          <mxGeometry x="170" y="600" width="40" height="40" as="geometry" />
        </mxCell>
        <mxCell id="YXvxxSpYPAcV_I6SkZBV-0" value="3" style="rounded=0;whiteSpace=wrap;html=1;fontSize=16;fillColor=#cce5ff;strokeColor=#36393d;" vertex="1" parent="IYaacCzt3TlYQdoAjtVo-1">
          <mxGeometry x="210" y="400" width="40" height="40" as="geometry" />
        </mxCell>
        <mxCell id="YXvxxSpYPAcV_I6SkZBV-1" value="1" style="rounded=0;whiteSpace=wrap;html=1;fontSize=16;fillColor=#ffcccc;strokeColor=#36393d;" vertex="1" parent="IYaacCzt3TlYQdoAjtVo-1">
          <mxGeometry x="210" y="440" width="40" height="40" as="geometry" />
        </mxCell>
        <mxCell id="YXvxxSpYPAcV_I6SkZBV-2" value="1" style="rounded=0;whiteSpace=wrap;html=1;fontSize=16;fillColor=#ffcc99;strokeColor=#36393d;" vertex="1" parent="IYaacCzt3TlYQdoAjtVo-1">
          <mxGeometry x="210" y="480" width="40" height="40" as="geometry" />
        </mxCell>
        <mxCell id="YXvxxSpYPAcV_I6SkZBV-3" value="1" style="rounded=0;whiteSpace=wrap;html=1;fontSize=16;fillColor=#f9f7ed;strokeColor=#36393d;" vertex="1" parent="IYaacCzt3TlYQdoAjtVo-1">
          <mxGeometry x="210" y="520" width="40" height="40" as="geometry" />
        </mxCell>
        <mxCell id="YXvxxSpYPAcV_I6SkZBV-4" value="1" style="rounded=0;whiteSpace=wrap;html=1;fontSize=16;fillColor=#eeeeee;strokeColor=#36393d;" vertex="1" parent="IYaacCzt3TlYQdoAjtVo-1">
          <mxGeometry x="210" y="560" width="40" height="40" as="geometry" />
        </mxCell>
        <mxCell id="YXvxxSpYPAcV_I6SkZBV-5" value="1" style="rounded=0;whiteSpace=wrap;html=1;fontSize=16;fillColor=#e1d5e7;strokeColor=#9673a6;" vertex="1" parent="IYaacCzt3TlYQdoAjtVo-1">
          <mxGeometry x="210" y="600" width="40" height="40" as="geometry" />
        </mxCell>
        <mxCell id="ge5rMIvO6kg-DrvJKcMK-0" value="3" style="rounded=0;whiteSpace=wrap;html=1;fontSize=17;" vertex="1" parent="IYaacCzt3TlYQdoAjtVo-1">
          <mxGeometry x="280" y="400" width="40" height="40" as="geometry" />
        </mxCell>
        <mxCell id="ge5rMIvO6kg-DrvJKcMK-1" value="3" style="rounded=0;whiteSpace=wrap;html=1;fontSize=17;" vertex="1" parent="IYaacCzt3TlYQdoAjtVo-1">
          <mxGeometry x="280" y="440" width="40" height="40" as="geometry" />
        </mxCell>
        <mxCell id="ge5rMIvO6kg-DrvJKcMK-2" value="4" style="rounded=0;whiteSpace=wrap;html=1;fontSize=17;" vertex="1" parent="IYaacCzt3TlYQdoAjtVo-1">
          <mxGeometry x="280" y="480" width="40" height="40" as="geometry" />
        </mxCell>
        <mxCell id="ge5rMIvO6kg-DrvJKcMK-3" value="4" style="rounded=0;whiteSpace=wrap;html=1;fontSize=17;" vertex="1" parent="IYaacCzt3TlYQdoAjtVo-1">
          <mxGeometry x="280" y="520" width="40" height="40" as="geometry" />
        </mxCell>
        <mxCell id="ge5rMIvO6kg-DrvJKcMK-4" value="3" style="rounded=0;whiteSpace=wrap;html=1;fontSize=17;" vertex="1" parent="IYaacCzt3TlYQdoAjtVo-1">
          <mxGeometry x="280" y="560" width="40" height="40" as="geometry" />
        </mxCell>
        <mxCell id="ge5rMIvO6kg-DrvJKcMK-5" value="3" style="rounded=0;whiteSpace=wrap;html=1;fontSize=17;" vertex="1" parent="IYaacCzt3TlYQdoAjtVo-1">
          <mxGeometry x="280" y="600" width="40" height="40" as="geometry" />
        </mxCell>
        <mxCell id="CycM8UYSOvYx2RgKMvC9-0" value="" style="edgeStyle=orthogonalEdgeStyle;rounded=0;orthogonalLoop=1;jettySize=auto;html=1;fontSize=16;" edge="1" source="CycM8UYSOvYx2RgKMvC9-1" target="CycM8UYSOvYx2RgKMvC9-4" parent="IYaacCzt3TlYQdoAjtVo-1">
          <mxGeometry relative="1" as="geometry" />
        </mxCell>
        <mxCell id="CycM8UYSOvYx2RgKMvC9-1" value="8" style="rounded=0;whiteSpace=wrap;html=1;fontSize=16;fillColor=#ffe6cc;strokeColor=#d79b00;" vertex="1" parent="IYaacCzt3TlYQdoAjtVo-1">
          <mxGeometry x="440" y="537.5" width="40" height="40" as="geometry" />
        </mxCell>
        <mxCell id="CycM8UYSOvYx2RgKMvC9-2" value="" style="edgeStyle=orthogonalEdgeStyle;rounded=0;orthogonalLoop=1;jettySize=auto;html=1;fontSize=16;" edge="1" source="CycM8UYSOvYx2RgKMvC9-3" target="CycM8UYSOvYx2RgKMvC9-4" parent="IYaacCzt3TlYQdoAjtVo-1">
          <mxGeometry relative="1" as="geometry" />
        </mxCell>
        <mxCell id="CycM8UYSOvYx2RgKMvC9-3" value="20" style="rounded=0;whiteSpace=wrap;html=1;fontSize=16;fillColor=#dae8fc;strokeColor=#6c8ebf;" vertex="1" parent="IYaacCzt3TlYQdoAjtVo-1">
          <mxGeometry x="440" y="502.5" width="40" height="40" as="geometry" />
        </mxCell>
        <mxCell id="CycM8UYSOvYx2RgKMvC9-4" value="2.5" style="rounded=0;whiteSpace=wrap;html=1;fontSize=16;fillColor=#fff2cc;strokeColor=#d6b656;" vertex="1" parent="IYaacCzt3TlYQdoAjtVo-1">
          <mxGeometry x="560" y="522.5" width="40" height="40" as="geometry" />
        </mxCell>
        <mxCell id="CycM8UYSOvYx2RgKMvC9-5" value="Lavg" style="text;html=1;align=center;verticalAlign=middle;resizable=0;points=[];autosize=1;fontSize=20;fillColor=#eeeeee;strokeColor=#36393d;fontStyle=1" vertex="1" parent="IYaacCzt3TlYQdoAjtVo-1">
          <mxGeometry x="505" y="460" width="60" height="30" as="geometry" />
        </mxCell>
        <mxCell id="CycM8UYSOvYx2RgKMvC9-6" value="1" style="rounded=0;whiteSpace=wrap;html=1;fontSize=14;fillColor=#cce5ff;strokeColor=#36393d;" vertex="1" parent="IYaacCzt3TlYQdoAjtVo-1">
          <mxGeometry x="515" y="600" width="50" height="40" as="geometry" />
        </mxCell>
        <mxCell id="CycM8UYSOvYx2RgKMvC9-7" value="001" style="rounded=0;whiteSpace=wrap;html=1;fontSize=14;fillColor=#ffcccc;strokeColor=#36393d;" vertex="1" parent="IYaacCzt3TlYQdoAjtVo-1">
          <mxGeometry x="565" y="600" width="50" height="40" as="geometry" />
        </mxCell>
        <mxCell id="CycM8UYSOvYx2RgKMvC9-8" value="0000" style="rounded=0;whiteSpace=wrap;html=1;fontSize=14;fillColor=#ffcc99;strokeColor=#36393d;" vertex="1" parent="IYaacCzt3TlYQdoAjtVo-1">
          <mxGeometry x="615" y="600" width="50" height="40" as="geometry" />
        </mxCell>
        <mxCell id="CycM8UYSOvYx2RgKMvC9-9" value="00001" style="rounded=0;whiteSpace=wrap;html=1;fontSize=14;fillColor=#f9f7ed;strokeColor=#36393d;" vertex="1" parent="IYaacCzt3TlYQdoAjtVo-1">
          <mxGeometry x="665" y="600" width="50" height="40" as="geometry" />
        </mxCell>
        <mxCell id="CycM8UYSOvYx2RgKMvC9-10" value="010" style="rounded=0;whiteSpace=wrap;html=1;fontSize=14;fillColor=#eeeeee;strokeColor=#36393d;" vertex="1" parent="IYaacCzt3TlYQdoAjtVo-1">
          <mxGeometry x="715" y="600" width="50" height="40" as="geometry" />
        </mxCell>
        <mxCell id="CycM8UYSOvYx2RgKMvC9-11" value="011" style="rounded=0;whiteSpace=wrap;html=1;fontSize=14;fillColor=#e1d5e7;strokeColor=#9673a6;" vertex="1" parent="IYaacCzt3TlYQdoAjtVo-1">
          <mxGeometry x="765" y="600" width="50" height="40" as="geometry" />
        </mxCell>
      </root>
    </mxGraphModel>
  </diagram>
</mxfile>
